<?xml version="1.0" encoding="UTF-8" standalone="no"?>
<!DOCTYPE svg PUBLIC "-//W3C//DTD SVG 1.1//EN" "http://www.w3.org/Graphics/SVG/1.1/DTD/svg11.dtd">
<svg width="100%" height="100%" viewBox="0 0 512 512" version="1.1" xmlns="http://www.w3.org/2000/svg" xmlns:xlink="http://www.w3.org/1999/xlink" xml:space="preserve" xmlns:serif="http://www.serif.com/" style="fill-rule:evenodd;clip-rule:evenodd;stroke-linejoin:round;stroke-miterlimit:2;">
    <path d="M448.8,0L111.4,0C76.552,0 48.2,28.352 48.2,63.2L48.2,448.801C48.2,483.648 76.551,512 111.399,512L448.799,512C457.083,512 463.799,505.283 463.799,497L463.799,15C463.8,6.716 457.085,0 448.8,0ZM159.6,96.399L352.401,96.399C360.685,96.399 367.401,103.115 367.401,111.399C367.401,119.683 360.685,126.399 352.401,126.399L159.6,126.399C151.316,126.399 144.6,119.683 144.6,111.399C144.6,103.115 151.315,96.399 159.6,96.399ZM111.401,482C93.094,482 78.201,467.106 78.201,448.801C78.201,448.229 78.216,447.659 78.244,447.095C79.135,429.577 93.667,415.6 111.4,415.6L433.8,415.6L433.8,482L111.401,482Z" style="fill:rgb(38,47,39);fill-rule:nonzero;"/>
</svg>
