<?xml version="1.0" encoding="UTF-8" standalone="no"?>
<!DOCTYPE svg PUBLIC "-//W3C//DTD SVG 1.1//EN" "http://www.w3.org/Graphics/SVG/1.1/DTD/svg11.dtd">
<svg width="100%" height="100%" viewBox="0 0 513 513" version="1.1" xmlns="http://www.w3.org/2000/svg" xmlns:xlink="http://www.w3.org/1999/xlink" xml:space="preserve" xmlns:serif="http://www.serif.com/" style="fill-rule:evenodd;clip-rule:evenodd;stroke-linejoin:round;stroke-miterlimit:2;">
    <path d="M490.421,137.707C490.336,136.704 490.272,135.702 489.866,134.72C489.759,134.464 489.546,134.293 489.418,134.037C489.141,133.504 488.821,133.056 488.458,132.565C487.733,131.562 486.922,130.73 485.941,130.048C485.685,129.877 485.578,129.557 485.301,129.408L261.301,1.408C258.016,-0.469 254.005,-0.469 250.72,1.408L26.72,129.408C26.464,129.579 26.357,129.877 26.101,130.048C25.077,130.752 24.202,131.605 23.456,132.672C23.157,133.099 22.859,133.483 22.624,133.952C22.475,134.229 22.24,134.421 22.112,134.72C21.643,135.893 21.493,137.109 21.451,138.304C21.451,138.432 21.344,138.56 21.344,138.688L21.344,373.355C21.344,373.568 21.493,373.76 21.515,373.974C21.6,375.467 21.835,376.961 22.56,378.326C22.603,378.411 22.688,378.433 22.731,378.518C23.008,379.009 23.499,379.329 23.862,379.777C24.651,380.758 25.419,381.718 26.465,382.38C26.572,382.444 26.614,382.572 26.7,382.615L250.7,510.615C252.364,511.554 254.177,512.023 256.012,512.023C257.847,512.023 259.66,511.554 261.303,510.615L485.303,382.615C485.41,382.551 485.452,382.423 485.559,382.359C486.54,381.762 487.223,380.866 487.97,379.97C488.397,379.458 488.973,379.074 489.293,378.498C489.336,378.434 489.4,378.391 489.442,378.327C490.018,377.218 490.125,376.002 490.295,374.807C490.359,374.316 490.679,373.868 490.679,373.356L490.679,138.688C490.677,138.347 490.443,138.048 490.421,137.707ZM455.52,136.981L377.269,168.277L291.211,43.093L455.52,136.981ZM256.011,29.504L353.078,170.688L158.944,170.688L256.011,29.504ZM220.747,43.115L134.71,168.278L56.48,136.981L220.747,43.115ZM42.677,154.432L123.445,186.752L42.677,332.16L42.677,154.432ZM138.635,203.392L236.96,382.165L49.248,364.288L138.635,203.392ZM245.344,482.965L80.224,388.629L245.344,404.202L245.344,482.965ZM256.011,372.544L156.726,192.021L355.297,192.021L256.011,372.544ZM266.677,482.965L266.677,404.394L431.712,388.671L266.677,482.965ZM274.997,382.357L373.408,203.456L462.773,364.309L274.997,382.357ZM469.344,332.203L388.533,186.752L469.344,154.432L469.344,332.203Z" style="fill-rule:nonzero;"/>
</svg>
