<?xml version="1.0" encoding="UTF-8" standalone="no"?>
<!DOCTYPE svg PUBLIC "-//W3C//DTD SVG 1.1//EN" "http://www.w3.org/Graphics/SVG/1.1/DTD/svg11.dtd">
<svg width="100%" height="100%" viewBox="0 0 512 512" version="1.1" xmlns="http://www.w3.org/2000/svg" xmlns:xlink="http://www.w3.org/1999/xlink" xml:space="preserve" xmlns:serif="http://www.serif.com/" style="fill-rule:evenodd;clip-rule:evenodd;stroke-linejoin:round;stroke-miterlimit:2;">
    <g transform="matrix(-1,0,0,1,512.001,0)">
        <g>
            <path d="M279.999,0C174.111,0 87.999,86.112 87.999,192L87.999,220.224L41.695,312.832C39.199,317.792 39.487,323.68 42.399,328.384C45.311,333.088 50.463,336 55.999,336L87.999,336L87.999,413.056C87.999,422.464 92.095,431.328 99.295,437.408C106.495,443.488 115.839,446.144 125.183,444.576L183.999,434.848L183.999,496C183.999,500.704 186.047,505.184 189.663,508.192C192.575,510.656 196.223,512 199.999,512C200.863,512 201.759,511.936 202.623,511.776L394.623,479.776C402.335,478.496 407.999,471.84 407.999,464L407.999,365.408C407.999,343.136 418.943,325.28 428.127,314.176C456.415,280 471.999,236.608 471.999,192C471.999,86.112 385.887,0 279.999,0Z" style="fill:rgb(0,37,109);fill-rule:nonzero;"/>
        </g>
    </g>
</svg>
