<?xml version="1.0" encoding="UTF-8" standalone="no"?>
<!DOCTYPE svg PUBLIC "-//W3C//DTD SVG 1.1//EN" "http://www.w3.org/Graphics/SVG/1.1/DTD/svg11.dtd">
<svg width="100%" height="100%" viewBox="0 0 492 492" version="1.1" xmlns="http://www.w3.org/2000/svg" xmlns:xlink="http://www.w3.org/1999/xlink" xml:space="preserve" xmlns:serif="http://www.serif.com/" style="fill-rule:evenodd;clip-rule:evenodd;stroke-linejoin:round;stroke-miterlimit:2;">
    <path d="M396.86,189.696L345.044,189.696L345.044,181.225C361.92,168.726 372.884,148.677 372.884,126.112C372.884,92.682 348.829,64.763 317.12,58.756C307.903,24.725 276.851,0.001 240.165,0C219.861,0.001 200.375,7.852 185.725,21.513C180.494,20.145 175.085,19.441 169.648,19.441C143.799,19.441 121.25,35.124 111.426,57.676C110.086,57.597 108.739,57.558 107.389,57.558C69.589,57.558 38.836,88.311 38.836,126.111C38.836,146.924 48.171,165.586 62.86,178.169L62.86,461.695C62.86,478.195 76.36,491.695 92.86,491.695L315.044,491.695C331.544,491.695 345.044,478.195 345.044,461.695L345.044,417.695L396.86,417.695C427.738,417.695 452.86,392.573 452.86,361.695L452.86,245.695C452.86,214.817 427.738,189.696 396.86,189.696ZM304.331,156.665L128.795,156.665L128.795,217.716C128.795,228.209 120.288,236.716 109.795,236.716C99.302,236.716 90.795,228.209 90.795,217.716L90.795,151.745C82.402,146.293 76.836,136.843 76.836,126.111C76.836,109.264 90.542,95.558 107.389,95.558C111.181,95.558 114.892,96.252 118.421,97.62C124.057,99.805 130.397,99.179 135.496,95.931C140.595,92.683 143.844,87.203 144.247,81.172C145.136,67.865 156.293,57.441 169.648,57.441C174.004,57.441 178.133,58.501 181.918,60.59C190.293,65.212 200.798,62.887 206.441,55.163C214.409,44.256 226.701,38 240.165,38C262.442,38 280.751,55.408 281.847,77.631C282.098,82.731 284.392,87.516 288.212,90.905C292.031,94.295 297.054,96.009 302.148,95.649C303.032,95.587 303.726,95.559 304.331,95.559C321.178,95.559 334.884,109.265 334.884,126.112C334.884,142.959 321.178,156.665 304.331,156.665ZM400.86,361.696C400.86,363.827 398.991,365.696 396.86,365.696L345.044,365.696L345.044,241.696L396.86,241.696C398.991,241.696 400.86,243.565 400.86,245.696L400.86,361.696Z" style="fill:rgb(75,60,24);fill-rule:nonzero;"/>
</svg>
