<?xml version="1.0" encoding="UTF-8" standalone="no"?>
<!DOCTYPE svg PUBLIC "-//W3C//DTD SVG 1.1//EN" "http://www.w3.org/Graphics/SVG/1.1/DTD/svg11.dtd">
<svg width="100%" height="100%" viewBox="0 0 612 612" version="1.1" xmlns="http://www.w3.org/2000/svg" xmlns:xlink="http://www.w3.org/1999/xlink" xml:space="preserve" xmlns:serif="http://www.serif.com/" style="fill-rule:evenodd;clip-rule:evenodd;stroke-linejoin:round;stroke-miterlimit:2;">
    <g>
        <g>
            <path d="M122.855,335.491C126.369,346.954 130.002,358.809 131.815,370.749C132.556,375.615 135.462,411.01 137.033,430.456C137.635,437.907 143.285,443.964 150.676,445.082L176.497,448.986C180.22,449.549 183.189,452.388 183.914,456.083L187.316,473.484C188.795,481.047 195.424,486.502 203.13,486.498L403.371,486.379C410.943,486.374 417.489,481.096 419.097,473.697L422.993,455.782C423.853,452.246 426.775,449.589 430.376,449.065L461.813,444.499C469.367,443.402 475.113,437.155 475.572,429.535C476.778,409.527 479.029,373.101 479.727,368.11C481.38,356.326 484.858,344.678 488.217,333.346C492.926,317.489 497.795,301.121 497.795,284.098C497.801,175.389 411.393,86.966 305.187,86.966C198.981,86.966 112.574,175.437 112.574,284.17C112.575,301.952 117.801,319.004 122.855,335.491ZM330.285,325.459C331.506,294.582 359.195,286.818 390.072,288.038C420.949,289.259 443.321,299.003 442.1,329.88C440.879,360.757 414.859,384.798 383.982,383.577C353.105,382.356 329.064,356.336 330.285,325.459ZM312.119,386.048L332.161,415.727C333.939,418.359 334.182,421.738 332.8,424.598L329.925,430.549C328.436,433.63 325.316,435.587 321.895,435.587L287.561,435.587C284.139,435.587 281.019,433.629 279.531,430.549L276.656,424.598C275.274,421.738 275.518,418.36 277.295,415.727L297.337,386.048C300.873,380.811 308.583,380.811 312.119,386.048ZM220.299,288.039C251.176,286.818 278.865,294.582 280.086,325.46C281.307,356.337 257.266,382.357 226.389,383.578C195.512,384.799 169.492,360.758 168.271,329.881C167.05,299.003 189.422,289.259 220.299,288.039Z" style="fill:rgb(94,0,0);fill-rule:nonzero;"/>
            <path d="M556.35,58.611C558.752,43.861 554.261,28.206 542.851,16.854C524.525,-1.38 494.627,-1.712 475.922,16.133C456.364,34.792 456.088,65.779 475.094,84.785L457.624,102.255C450.644,109.236 450.644,120.554 457.624,127.535L487.426,157.337C494.406,164.318 505.725,164.318 512.705,157.337L530.175,139.867C549.182,158.874 580.169,158.597 598.827,139.039C616.672,120.334 616.339,90.435 598.105,72.11C586.754,60.7 571.1,56.209 556.35,58.611Z" style="fill:rgb(94,0,0);fill-rule:nonzero;"/>
            <path d="M81.824,139.866L99.294,157.336C106.275,164.317 117.593,164.317 124.573,157.336L154.375,127.534C161.356,120.553 161.356,109.235 154.375,102.254L136.905,84.784C155.912,65.778 155.635,34.791 136.077,16.132C117.372,-1.712 87.474,-1.38 69.148,16.854C57.739,28.206 53.248,43.861 55.65,58.611C40.9,56.209 25.246,60.7 13.893,72.109C-4.341,90.434 -4.674,120.333 13.171,139.038C31.83,158.596 62.817,158.872 81.824,139.866Z" style="fill:rgb(94,0,0);fill-rule:nonzero;"/>
            <path d="M598.829,472.962C580.17,453.403 549.183,453.128 530.177,472.134L512.707,454.664C505.726,447.683 494.408,447.683 487.428,454.664L457.626,484.466C450.646,491.447 450.646,502.765 457.626,509.746L475.096,527.216C456.089,546.223 456.366,577.21 475.924,595.868C494.629,613.713 524.528,613.381 542.853,595.147C554.263,583.795 558.754,568.14 556.352,553.39C571.102,555.792 586.756,551.301 598.108,539.891C616.341,521.565 616.673,491.667 598.829,472.962Z" style="fill:rgb(94,0,0);fill-rule:nonzero;"/>
            <path d="M55.65,553.389C53.248,568.139 57.739,583.794 69.149,595.146C87.475,613.38 117.373,613.712 136.078,595.867C155.636,577.208 155.912,546.221 136.906,527.215L154.376,509.745C161.357,502.765 161.357,491.446 154.376,484.465L124.574,454.663C117.593,447.682 106.275,447.682 99.295,454.663L81.825,472.133C62.818,453.126 31.831,453.402 13.173,472.961C-4.672,491.666 -4.34,521.564 13.894,539.89C25.246,551.3 40.9,555.791 55.65,553.389Z" style="fill:rgb(94,0,0);fill-rule:nonzero;"/>
        </g>
    </g>
</svg>
