<?xml version="1.0" encoding="UTF-8" standalone="no"?>
<!DOCTYPE svg PUBLIC "-//W3C//DTD SVG 1.1//EN" "http://www.w3.org/Graphics/SVG/1.1/DTD/svg11.dtd">
<svg width="100%" height="100%" viewBox="0 0 2550 1800" version="1.1" xmlns="http://www.w3.org/2000/svg" xmlns:xlink="http://www.w3.org/1999/xlink" xml:space="preserve" xmlns:serif="http://www.serif.com/" style="fill-rule:evenodd;clip-rule:evenodd;stroke-linejoin:round;stroke-miterlimit:2;">
    <g>
        <g transform="matrix(4.16667,0,0,4.16667,-1739.84,-638.374)">
            <text x="540.644px" y="469.578px" style="font-family:'NodestoCapsCondensed', 'Nodesto Caps Condensed';font-style:italic;font-stretch:condensed;font-size:72px;fill:rgb(99,29,7);">Quick Adventures</text>
        </g>
        <g transform="matrix(0.535677,0,0,0.535677,1137.87,1407.72)">
            <path d="M507.606,4.394C504.267,1.055 499.551,-0.515 494.878,0.151L346.387,21.364C342.699,21.891 339.34,23.77 336.962,26.637L139.321,264.938C122.968,257.675 102.927,260.581 89.247,274.261L68.034,295.474C62.18,301.328 62.177,310.83 68.034,316.687L99.854,348.507L51.214,397.147L45,397.147C20.187,397.147 0,417.334 0,442.147L0,467C0,491.813 20.187,512 45,512L69.853,512C94.666,512 114.853,491.813 114.853,467L114.853,460.787L163.492,412.147L195.312,443.967C201.166,449.821 210.668,449.824 216.525,443.967L237.737,422.754C251.375,409.116 254.348,389.088 247.06,372.679L485.362,175.038C488.228,172.66 490.108,169.301 490.635,165.613L511.85,17.121C512.517,12.447 510.945,7.732 507.606,4.394ZM84.853,467C84.853,475.271 78.124,482 69.853,482L45,482C36.729,482 30,475.271 30,467L30,442.147C30,433.876 36.729,427.147 45,427.147L51.213,427.147L84.853,460.787L84.853,467ZM99.853,433.36L78.64,412.147L121.066,369.721L142.279,390.934L99.853,433.36ZM216.525,401.54L205.919,412.146L99.853,306.081L110.46,295.475C116.323,289.612 125.809,289.612 131.673,295.475L216.526,380.328C222.388,386.191 222.388,395.677 216.525,401.54ZM461.757,155.642L228.075,349.451L205.919,327.294L380.327,152.886C386.185,147.028 386.185,137.531 380.327,131.673C374.47,125.815 364.972,125.815 359.114,131.673L184.706,306.081L162.55,283.925L356.358,50.244L479.322,32.678L461.757,155.642Z" style="fill:rgb(99,29,7);fill-rule:nonzero;"/>
        </g>
    </g>
</svg>
