<?xml version="1.0" encoding="UTF-8" standalone="no"?>
<!DOCTYPE svg PUBLIC "-//W3C//DTD SVG 1.1//EN" "http://www.w3.org/Graphics/SVG/1.1/DTD/svg11.dtd">
<svg width="100%" height="100%" viewBox="0 0 2550 1800" version="1.1" xmlns="http://www.w3.org/2000/svg" xmlns:xlink="http://www.w3.org/1999/xlink" xml:space="preserve" xmlns:serif="http://www.serif.com/" style="fill-rule:evenodd;clip-rule:evenodd;stroke-linejoin:round;stroke-miterlimit:2;">
    <g>
        <g transform="matrix(4.16667,0,0,4.16667,-1739.84,-638.374)">
            <text x="478.347px" y="470.703px" style="font-family:'NodestoCapsCondensed', 'Nodesto Caps Condensed';font-style:italic;font-stretch:condensed;font-size:72px;fill:rgb(99,29,7);">Appendix C</text>
            <text x="723.351px" y="470.703px" style="font-family:'Arial-ItalicMT', 'Arial', sans-serif;font-style:italic;font-size:72px;fill:rgb(99,29,7);">-</text>
            <text x="765.187px" y="470.703px" style="font-family:'NodestoCapsCondensed', 'Nodesto Caps Condensed';font-style:italic;font-stretch:condensed;font-size:72px;fill:rgb(99,29,7);">Creatures</text>
        </g>
        <g transform="matrix(0.143572,0,0,0.143572,1121.86,1409.93)">
            <g transform="matrix(4.16667,0,0,4.16667,-0.000648043,-126.921)">
                <path d="M488.468,152.307L475.543,152.307L471.099,147.862C463.626,140.39 453.69,136.275 443.122,136.275L336.162,136.275C332.02,136.275 328.662,139.633 328.662,143.775C328.662,147.917 332.02,151.275 336.162,151.275L356.306,151.275L368.251,168.339L360.21,168.339C356.068,168.339 352.71,171.697 352.71,175.839C352.71,179.981 356.068,183.339 360.21,183.339L378.751,183.339L390.696,200.403L384.259,200.403C380.117,200.403 376.759,203.761 376.759,207.903C376.759,212.045 380.117,215.403 384.259,215.403L401.586,215.403C406.576,221.033 412.8,225.35 419.696,228.08C416.035,234.329 415.442,241.927 418.154,248.707L438.76,300.222C448.48,324.524 440.394,352.121 419.096,367.334L415.807,369.683L415.807,352.193C415.807,348.051 412.449,344.693 408.307,344.693C404.165,344.693 400.807,348.051 400.807,352.193L400.807,406.232L390.937,396.362C386.297,391.722 383.742,385.553 383.742,378.992L383.742,352.193C383.742,348.051 380.384,344.693 376.242,344.693C372.1,344.693 368.742,348.051 368.742,352.193L368.742,376.758L353.173,376.758C342.942,376.758 333.012,374.651 323.662,370.495L270.931,347.059C272.438,343.451 270.92,339.243 267.37,337.469C263.665,335.616 259.16,337.118 257.308,340.823L240.567,374.305C236.425,382.588 230.038,389.485 222.097,394.25L211.555,400.576L231.212,321.948C232.217,317.93 229.774,313.858 225.755,312.853C221.741,311.849 217.665,314.291 216.66,318.31L214.061,328.706C202.053,329.159 190.825,334.04 182.278,342.582C173.289,351.565 168.339,363.512 168.339,376.242C168.339,411.888 139.339,440.887 103.693,440.887C82.32,440.887 63.334,430.458 51.558,414.425C60.828,420.371 71.846,423.823 83.653,423.823C116.519,423.823 143.258,397.084 143.258,364.218C143.258,343.087 152.365,322.972 168.243,309.03C184.121,295.088 205.245,288.659 226.198,291.393L319.158,303.518C322.27,303.925 325.308,302.348 326.768,299.568C328.228,296.788 327.802,293.394 325.7,291.061C292.545,254.263 252.622,245.292 224.97,244.248C216.925,243.945 209.458,244.269 202.823,244.91L296.597,167.684L296.597,216.286C296.597,233.428 304.709,249.901 318.296,260.354L403.734,326.075C407.017,328.6 411.726,327.987 414.252,324.703C416.777,321.42 416.163,316.711 412.88,314.185L391.759,297.938L391.759,239.968C391.759,235.826 388.401,232.468 384.259,232.468C380.117,232.468 376.759,235.826 376.759,239.968L376.759,286.399L327.442,248.463C317.521,240.831 311.597,228.801 311.597,216.284L311.597,151.79C311.597,148.606 309.587,145.769 306.583,144.714L9.987,40.505C6.404,39.247 2.445,40.866 0.769,44.276C-0.905,47.686 0.236,51.81 3.424,53.876C4.298,54.443 87.968,109.293 97.481,168.081L94.817,168.388C90.702,168.863 87.752,172.583 88.226,176.699C88.667,180.522 91.91,183.34 95.667,183.34C95.954,183.34 96.244,183.324 96.536,183.29L107.125,182.068C160.903,198.627 166.718,242.717 167.29,254.739L163.054,258.227C159.856,260.86 159.399,265.587 162.032,268.784C163.515,270.585 165.662,271.516 167.826,271.516C169.504,271.516 171.193,270.955 172.589,269.806L178.937,264.578C184.298,262.991 202.258,258.316 224.948,259.257C252.926,260.42 277.459,269.28 298.147,285.65L228.138,276.519C202.906,273.228 177.467,280.969 158.346,297.758C139.225,314.547 128.258,338.771 128.258,364.218C128.258,388.813 108.248,408.823 83.653,408.823C59.058,408.823 39.048,388.813 39.048,364.218L39.048,323.236L60.9,301.384C62.98,299.304 63.652,296.201 62.619,293.447L38.571,229.318C37.473,226.391 34.675,224.451 31.549,224.451C28.423,224.451 25.624,226.39 24.527,229.318L0.478,293.448C-0.555,296.202 0.118,299.305 2.197,301.385L24.049,323.237L24.049,376.244C24.049,420.161 59.778,455.889 103.695,455.889C147.612,455.889 183.34,420.16 183.34,376.222C183.34,367.522 186.729,359.344 192.882,353.193C197.664,348.413 203.673,345.313 210.196,344.167L192.612,414.505C192.177,416.242 192.379,418.077 193.18,419.678L211.801,456.921L203.895,456.921C199.753,456.921 196.395,460.279 196.395,464.421C196.395,468.563 199.753,471.921 203.895,471.921L227.943,471.921C229.819,471.921 231.627,471.218 233.01,469.951C236.02,467.193 241.061,463.905 247.984,463.905C254.907,463.905 259.948,467.193 262.958,469.951C264.398,471.27 266.213,471.921 268.023,471.921C270.052,471.921 272.076,471.102 273.555,469.488C276.353,466.434 276.146,461.69 273.092,458.891C266.064,452.451 257.147,448.905 247.985,448.905C240.8,448.905 233.768,451.087 227.678,455.133L209.703,419.182L229.817,407.114C240.209,400.879 248.566,391.854 253.985,381.015L264.24,360.5L317.571,384.203C328.851,389.217 340.83,391.759 353.174,391.759L370.848,391.759C372.773,397.423 375.977,402.616 380.331,406.969L393.613,420.251C398.253,424.891 400.808,431.06 400.808,437.621L400.808,456.92L388.267,456.92C384.125,456.92 380.767,460.278 380.767,464.42C380.767,468.562 384.125,471.92 388.267,471.92L412.315,471.92C414.191,471.92 415.999,471.217 417.382,469.949C420.392,467.191 425.433,463.904 432.356,463.904C439.279,463.904 444.319,467.192 447.329,469.949C448.768,471.268 450.584,471.92 452.394,471.92C454.423,471.92 456.446,471.101 457.925,469.487C460.724,466.433 460.517,461.689 457.463,458.891C450.436,452.451 441.519,448.904 432.356,448.904C426.607,448.904 420.957,450.305 415.808,452.936L415.808,388.118L427.816,379.541C454.755,360.298 464.983,325.391 452.688,294.652L432.082,243.137C431.014,240.466 431.326,237.568 432.939,235.185C434.552,232.802 437.127,231.436 440.004,231.436L488.469,231.436C492.611,231.436 495.969,228.078 495.969,223.936C495.969,219.794 492.611,216.436 488.469,216.436L447.872,216.436L447.872,207.904C447.872,203.199 451.7,199.372 456.404,199.372L488.985,199.372L488.985,199.888C488.985,204.03 492.343,207.388 496.485,207.388C500.627,207.388 503.985,204.03 503.985,199.888L503.985,199.372L504.501,199.372C508.643,199.372 512.001,196.014 512.001,191.872L512.001,175.84C512,162.864 501.444,152.307 488.468,152.307ZM173.912,220.235C167.977,207.03 156.939,190.828 136.528,178.675L208.766,170.34C212.881,169.865 215.831,166.145 215.357,162.029C214.881,157.915 211.163,154.958 207.046,155.438L112.382,166.361C106.514,128.359 74.991,93.292 48.704,70.007L270.888,148.072L239.101,151.739C234.986,152.214 232.036,155.934 232.51,160.05C232.951,163.873 236.194,166.691 239.951,166.691C240.238,166.691 240.528,166.675 240.82,166.641L279.714,162.153L181.009,243.439C179.871,236.93 177.773,228.826 173.912,220.235ZM16.218,294.192L31.548,253.312L46.878,294.192L31.548,309.523L16.218,294.192ZM497.001,184.372L456.403,184.372C443.427,184.372 432.871,194.929 432.871,207.904L432.871,216.139C423.909,214.938 415.756,210.049 410.499,202.539L397.059,183.339L408.306,183.339C412.448,183.339 415.806,179.981 415.806,175.839C415.806,171.697 412.448,168.339 408.306,168.339L386.56,168.339L374.615,151.275L443.122,151.275C449.684,151.275 455.852,153.83 460.492,158.469L467.133,165.11C468.54,166.517 470.447,167.307 472.437,167.307L488.469,167.307C493.174,167.307 497.001,171.135 497.001,175.839L497.001,184.372Z" style="fill:rgb(99,29,7);fill-rule:nonzero;"/>
            </g>
            <g transform="matrix(4.16667,0,0,4.16667,-0.000648043,-126.921)">
                <path d="M448.467,160.323L448.387,160.323C444.245,160.323 440.927,163.681 440.927,167.823C440.927,171.965 444.325,175.323 448.467,175.323C452.609,175.323 455.967,171.965 455.967,167.823C455.967,163.681 452.61,160.323 448.467,160.323Z" style="fill:rgb(99,29,7);fill-rule:nonzero;"/>
            </g>
        </g>
    </g>
</svg>
