<?xml version="1.0" encoding="UTF-8" standalone="no"?>
<!DOCTYPE svg PUBLIC "-//W3C//DTD SVG 1.1//EN" "http://www.w3.org/Graphics/SVG/1.1/DTD/svg11.dtd">
<svg width="100%" height="100%" viewBox="0 0 2550 1800" version="1.1" xmlns="http://www.w3.org/2000/svg" xmlns:xlink="http://www.w3.org/1999/xlink" xml:space="preserve" xmlns:serif="http://www.serif.com/" style="fill-rule:evenodd;clip-rule:evenodd;stroke-linejoin:round;stroke-miterlimit:2;">
    <g>
        <g transform="matrix(4.16667,0,0,4.16667,-1739.84,-940.509)">
            <text x="607.617px" y="469.578px" style="font-family:'NodestoCapsCondensed', 'Nodesto Caps Condensed';font-style:italic;font-stretch:condensed;font-size:72px;fill:rgb(99,29,7);">Appendix B</text>
            <text x="474.779px" y="549.383px" style="font-family:'NodestoCapsCondensed', 'Nodesto Caps Condensed';font-style:italic;font-stretch:condensed;font-size:72px;fill:rgb(99,29,7);">Point of Interest Cards</text>
        </g>
        <g transform="matrix(0.468455,0,0,0.468455,1149.95,1430.05)">
            <path d="M496,456L488,456L488,264L496,264C498.672,264 501.168,262.664 502.656,260.44C504.144,258.216 504.416,255.392 503.384,252.928L463.384,156.928C462.144,153.944 459.224,152 456,152L352,152L352,136L376,136C389.232,136 400,125.232 400,112L400,32C400,18.768 389.232,8 376,8L136,8C122.768,8 112,18.768 112,32L112,112C112,125.232 122.768,136 136,136L160,136L160,152L56,152C52.776,152 49.856,153.944 48.616,156.92L8.616,252.92C7.584,255.392 7.856,258.208 9.344,260.432C10.832,262.656 13.328,264 16,264L24,264L24,456L16,456C11.576,456 8,459.584 8,464L8,496C8,500.416 11.576,504 16,504L496,504C500.424,504 504,500.416 504,496L504,464C504,459.584 500.424,456 496,456ZM128,112L128,32C128,27.592 131.584,24 136,24L376,24C380.416,24 384,27.592 384,32L384,112C384,116.408 380.416,120 376,120L136,120C131.584,120 128,116.408 128,112ZM176,136L336,136L336,152L176,152L176,136ZM61.336,168L450.664,168L470.664,216L41.336,216L61.336,168ZM34.664,232L477.328,232L483.992,248L27.992,248L34.664,232ZM40,264L472,264L472,456L176,456L176,328C180.424,328 184,324.416 184,320L184,288C184,283.584 180.424,280 176,280L64,280C59.576,280 56,283.584 56,288L56,320C56,324.416 59.576,328 64,328L64,456L40,456L40,264ZM168,312L72,312L72,296L168,296L168,312ZM160,328L160,456L80,456L80,328L160,328ZM488,488L24,488L24,472L488,472L488,488Z" style="fill:rgb(99,29,7);fill-rule:nonzero;"/>
            <path d="M176,32L160,32C151.176,32 144,39.176 144,48L144,64C144,72.824 151.176,80 160,80L176,80L176,96L160,96L160,88L144,88L144,96C144,104.824 151.176,112 160,112L176,112C184.824,112 192,104.824 192,96L192,80C192,71.176 184.824,64 176,64L160,64L160,48L176,48L176,56L192,56L192,48C192,39.176 184.824,32 176,32Z" style="fill:rgb(99,29,7);fill-rule:nonzero;"/>
            <path d="M232,64L216,64L216,32L200,32L200,112L216,112L216,80L232,80L232,112L248,112L248,32L232,32L232,64Z" style="fill:rgb(99,29,7);fill-rule:nonzero;"/>
            <path d="M288,32L272,32C263.176,32 256,39.176 256,48L256,96C256,104.824 263.176,112 272,112L288,112C296.824,112 304,104.824 304,96L304,48C304,39.176 296.824,32 288,32ZM272,96L272,48L288,48L288.008,96L272,96Z" style="fill:rgb(99,29,7);fill-rule:nonzero;"/>
            <path d="M344,32L320,32C315.576,32 312,35.584 312,40L312,112L328,112L328,80L344,80C357.232,80 368,69.232 368,56C368,42.768 357.232,32 344,32ZM344,64L328,64L328,48L344,48C348.416,48 352,51.592 352,56C352,60.408 348.416,64 344,64Z" style="fill:rgb(99,29,7);fill-rule:nonzero;"/>
            <path d="M208,440L448,440C452.424,440 456,436.416 456,432L456,400C456,395.584 452.424,392 448,392L440,392L440,328L448,328C452.424,328 456,324.416 456,320L456,288C456,283.584 452.424,280 448,280L208,280C203.576,280 200,283.584 200,288L200,320C200,324.416 203.576,328 208,328L216,328L216,392L208,392C203.576,392 200,395.584 200,400L200,432C200,436.416 203.576,440 208,440ZM216,296L440,296L440,312L216,312L216,296ZM232,328L424,328L424,392L232,392L232,328ZM216,408L440,408L440,424L216,424L216,408Z" style="fill:rgb(99,29,7);fill-rule:nonzero;"/>
            <rect x="128" y="376" width="16" height="16" style="fill:rgb(99,29,7);fill-rule:nonzero;"/>
        </g>
    </g>
</svg>
