<?xml version="1.0" encoding="UTF-8" standalone="no"?>
<!DOCTYPE svg PUBLIC "-//W3C//DTD SVG 1.1//EN" "http://www.w3.org/Graphics/SVG/1.1/DTD/svg11.dtd">
<svg width="100%" height="100%" viewBox="0 0 2550 1800" version="1.1" xmlns="http://www.w3.org/2000/svg" xmlns:xlink="http://www.w3.org/1999/xlink" xml:space="preserve" xmlns:serif="http://www.serif.com/" style="fill-rule:evenodd;clip-rule:evenodd;stroke-linejoin:round;stroke-miterlimit:2;">
    <g>
        <g transform="matrix(4.16667,0,0,4.16667,-1739.84,-638.374)">
            <text x="524.42px" y="470.703px" style="font-family:'NodestoCapsCondensed', 'Nodesto Caps Condensed';font-style:italic;font-stretch:condensed;font-size:72px;fill:rgb(99,29,7);">Appendix A</text>
            <text x="774.099px" y="470.703px" style="font-family:'Arial-ItalicMT', 'Arial', sans-serif;font-style:italic;font-size:72px;fill:rgb(99,29,7);">-</text>
            <text x="815.935px" y="470.703px" style="font-family:'NodestoCapsCondensed', 'Nodesto Caps Condensed';font-style:italic;font-stretch:condensed;font-size:72px;fill:rgb(99,29,7);">Maps</text>
        </g>
        <g transform="matrix(0.113721,0,0,0.113721,1163.1,1525.03)">
            <g transform="matrix(4.16667,0,0,4.16667,-82.6812,-892.355)">
                <path d="M105.639,290.751C101.926,290.751 98.507,289.051 96.256,286.084C94.189,283.358 91.045,281.796 87.631,281.796L87.629,281.796C84.217,281.797 81.073,283.36 79.007,286.084C76.757,289.05 73.337,290.751 69.625,290.751C65.913,290.751 62.493,289.05 60.244,286.086C58.177,283.36 55.033,281.797 51.62,281.796L51.618,281.796C48.205,281.796 45.06,283.359 42.991,286.085C40.742,289.051 37.323,290.751 33.61,290.751C29.467,290.751 26.11,294.108 26.11,298.251C26.11,302.394 29.467,305.751 33.61,305.751C40.388,305.751 46.735,303.263 51.618,298.799C56.502,303.263 62.847,305.751 69.625,305.751C76.401,305.751 82.748,303.263 87.631,298.798C92.515,303.263 98.86,305.751 105.639,305.751C109.782,305.751 113.139,302.394 113.139,298.251C113.139,294.108 109.781,290.751 105.639,290.751Z" style="fill:rgb(99,29,7);fill-rule:nonzero;"/>
            </g>
            <g transform="matrix(4.16667,0,0,4.16667,-82.6812,-892.355)">
                <path d="M229.889,340.198C226.177,340.198 222.757,338.498 220.508,335.534C218.441,332.807 215.296,331.244 211.882,331.244C208.468,331.244 205.323,332.807 203.257,335.532C201.007,338.498 197.587,340.198 193.875,340.198C190.163,340.198 186.743,338.498 184.492,335.532C182.425,332.807 179.281,331.244 175.867,331.244C172.454,331.244 169.31,332.807 167.242,335.532C164.992,338.498 161.572,340.198 157.86,340.198C153.717,340.198 150.36,343.555 150.36,347.698C150.36,351.841 153.717,355.198 157.86,355.198C164.637,355.198 170.984,352.71 175.868,348.246C180.751,352.71 187.097,355.198 193.875,355.198C200.653,355.198 206.997,352.711 211.882,348.246C216.766,352.711 223.111,355.198 229.889,355.198C234.032,355.198 237.389,351.841 237.389,347.698C237.389,343.555 234.031,340.198 229.889,340.198Z" style="fill:rgb(99,29,7);fill-rule:nonzero;"/>
            </g>
            <g transform="matrix(4.16667,0,0,4.16667,-82.6812,-892.355)">
                <path d="M282.11,404.645C288.886,404.645 295.233,402.157 300.117,397.692C305.001,402.157 311.346,404.645 318.125,404.645C324.901,404.645 331.247,402.157 336.132,397.693C341.016,402.157 347.361,404.645 354.139,404.645C358.282,404.645 361.639,401.288 361.639,397.145C361.639,393.002 358.282,389.645 354.139,389.645C350.427,389.645 347.007,387.944 344.758,384.98C342.691,382.253 339.546,380.69 336.132,380.69C332.718,380.69 329.573,382.253 327.507,384.978C325.257,387.944 321.837,389.645 318.125,389.645C314.412,389.645 310.993,387.945 308.742,384.978C306.675,382.252 303.531,380.69 300.117,380.69L300.115,380.69C296.702,380.691 293.558,382.254 291.492,384.978C289.242,387.944 285.822,389.645 282.11,389.645C277.967,389.645 274.61,393.002 274.61,397.145C274.61,401.288 277.968,404.645 282.11,404.645Z" style="fill:rgb(99,29,7);fill-rule:nonzero;"/>
            </g>
            <g transform="matrix(4.16667,0,0,4.16667,-82.6812,-892.355)">
                <path d="M105.639,251.738C101.926,251.738 98.507,250.038 96.256,247.072C94.189,244.346 91.045,242.784 87.631,242.784L87.629,242.784C84.217,242.785 81.073,244.348 79.007,247.072C76.757,250.038 73.337,251.738 69.625,251.738C65.913,251.738 62.493,250.038 60.243,247.071C58.176,244.347 55.033,242.785 51.62,242.784L51.618,242.784C48.206,242.784 45.062,244.346 42.991,247.073C40.742,250.038 37.323,251.738 33.61,251.738C29.467,251.738 26.11,255.095 26.11,259.237C26.11,263.38 29.467,266.737 33.61,266.737C40.389,266.737 46.736,264.248 51.618,259.785C56.502,264.249 62.847,266.737 69.625,266.737C76.403,266.737 82.748,264.249 87.631,259.785C92.514,264.249 98.86,266.737 105.639,266.737C109.782,266.737 113.139,263.38 113.139,259.237C113.139,255.095 109.781,251.738 105.639,251.738Z" style="fill:rgb(99,29,7);fill-rule:nonzero;"/>
            </g>
            <g transform="matrix(4.16667,0,0,4.16667,-82.6812,-892.355)">
                <path d="M203.257,296.517C201.007,299.483 197.587,301.184 193.875,301.184C190.163,301.184 186.743,299.483 184.492,296.517C182.425,293.792 179.281,292.229 175.867,292.229C172.454,292.229 169.31,293.792 167.242,296.517C164.992,299.483 161.572,301.184 157.86,301.184C153.717,301.184 150.36,304.541 150.36,308.684C150.36,312.827 153.717,316.184 157.86,316.184C164.637,316.184 170.984,313.696 175.868,309.231C180.752,313.696 187.097,316.184 193.875,316.184C200.651,316.184 206.997,313.696 211.882,309.232C216.766,313.696 223.111,316.184 229.889,316.184C234.032,316.184 237.389,312.827 237.389,308.684C237.389,304.541 234.032,301.184 229.889,301.184C226.177,301.184 222.757,299.483 220.508,296.519C218.441,293.792 215.296,292.229 211.882,292.229C208.468,292.229 205.323,293.792 203.257,296.517Z" style="fill:rgb(99,29,7);fill-rule:nonzero;"/>
            </g>
            <g transform="matrix(4.16667,0,0,4.16667,-82.6812,-892.355)">
                <path d="M282.11,365.63C288.886,365.63 295.233,363.142 300.117,358.677C305.001,363.142 311.346,365.63 318.125,365.63C324.901,365.63 331.247,363.142 336.132,358.678C341.016,363.142 347.361,365.63 354.139,365.63C358.282,365.63 361.639,362.273 361.639,358.13C361.639,353.987 358.282,350.63 354.139,350.63C350.427,350.63 347.007,348.929 344.758,345.965C342.691,343.238 339.546,341.675 336.132,341.675C332.718,341.675 329.573,343.238 327.507,345.963C325.257,348.929 321.837,350.63 318.125,350.63C314.412,350.63 310.993,348.93 308.742,345.963C306.675,343.237 303.531,341.675 300.117,341.675L300.115,341.675C296.702,341.676 293.558,343.239 291.492,345.963C289.242,348.929 285.822,350.63 282.11,350.63C277.967,350.63 274.61,353.987 274.61,358.13C274.61,362.273 277.968,365.63 282.11,365.63Z" style="fill:rgb(99,29,7);fill-rule:nonzero;"/>
            </g>
            <g transform="matrix(4.16667,0,0,4.16667,-82.6812,-892.355)">
                <path d="M511.799,178.461C511.785,178.368 511.771,178.275 511.755,178.182C511.159,174.596 509.486,171.306 507.02,168.729C505.147,166.773 502.819,165.227 500.165,164.276L382.782,122.175C382.676,122.137 382.568,122.114 382.461,122.081C382.315,122.036 382.169,121.989 382.021,121.952C381.87,121.915 381.719,121.89 381.567,121.863C381.427,121.838 381.288,121.811 381.147,121.794C380.988,121.775 380.83,121.767 380.671,121.758C380.534,121.75 380.398,121.74 380.26,121.74C380.099,121.74 379.939,121.751 379.779,121.761C379.643,121.77 379.507,121.776 379.37,121.792C379.21,121.811 379.052,121.841 378.894,121.87C378.759,121.895 378.624,121.917 378.49,121.949C378.333,121.987 378.179,122.037 378.024,122.085C377.923,122.117 377.819,122.138 377.719,122.174L256,165.829L212.674,150.289C215.696,144.116 217.981,137.631 219.489,130.865C220.39,126.822 217.843,122.814 213.801,121.913C209.76,121.015 205.751,123.559 204.849,127.601C202.035,140.226 196.019,151.313 187.877,160.585L136.938,218.613C134.222,221.708 129.349,221.787 126.564,218.612C125.685,217.611 76.945,162.091 75.472,160.404C33.279,112.039 67.701,36.632 131.75,36.632C173.109,36.632 198.639,67.32 204.855,95.832C205.738,99.879 209.74,102.444 213.781,101.562C217.828,100.679 220.393,96.683 219.511,92.636C210.395,50.829 174.306,21.631 131.748,21.631C63.945,21.631 22.716,92.634 50.873,150.273L11.834,164.274C4.756,166.813 -0,173.572 -0,181.093L-0,468.14C-0,480.487 12.268,489.128 23.898,484.957L131.749,446.275L253.468,489.93C255.155,490.531 256.946,490.494 258.531,489.93L306.877,472.59C310.775,471.192 312.803,466.898 311.404,462.998C310.005,459.099 305.711,457.074 301.812,458.471L263.499,472.212L263.499,179.076L328.25,155.852C328.137,162.44 326.373,168.495 320.835,170.492C306.265,175.744 297.015,188.198 298.34,200.779C299.37,210.56 306.561,217.534 317.107,218.978C325.711,220.157 331.879,222.686 333.61,225.745C335.23,228.605 332.964,232.921 331.627,235.931C327.96,244.171 321.824,257.962 321.107,272.114C319.626,301.389 343.716,319.363 372.751,317.614L372.751,433.03L334.789,446.646C330.891,448.044 328.863,452.338 330.262,456.238C331.661,460.138 335.956,462.162 339.854,460.765L380.251,446.276L464.935,476.649L488.101,484.958C499.757,489.138 512,480.458 512,468.141L512,181.093C512,180.203 511.928,179.324 511.799,178.461ZM124.249,433.03L18.834,470.838C16.965,471.513 15,470.129 15,468.14L15,181.093C15,179.886 15.763,178.802 16.898,178.395L58.711,163.398C60.266,165.557 62.485,168.361 64.349,170.484L115.288,228.511L115.288,228.51C117.752,231.318 120.939,233.434 124.248,234.64L124.248,433.03L124.249,433.03ZM248.5,472.213L139.249,433.03L139.249,234.64C142.76,233.358 145.877,231.169 148.21,228.511L199.149,170.484C200.863,168.532 203.054,165.81 204.795,163.401L248.499,179.077L248.499,472.213L248.5,472.213ZM372.75,302.604C364.66,303.227 358.011,302.151 352.155,299.307C330.105,288.596 333.48,268.662 345.33,242.028C347.202,237.822 352.161,228.075 346.665,218.359C342.403,210.827 333.143,206.036 319.142,204.118C315.529,203.623 313.548,201.972 313.257,199.209C312.751,194.402 316.939,187.843 325.922,184.605C333.318,181.939 344.784,174.003 343.079,150.536L372.75,139.894L372.75,302.604ZM464.965,460.724L387.75,433.03L387.75,315.378C411.354,310.056 436.536,296.98 443.724,305.225C448.921,311.186 451.335,316.978 450.9,322.441C450.47,327.837 447.224,332.328 444.576,334.535C439.294,338.937 426.725,358.164 428.405,377.437C429.474,389.712 436.128,399.693 447.645,406.301C461.736,414.386 470.503,424.813 472.333,435.66C473.705,443.799 471.224,452.212 464.965,460.724ZM497,468.14C497,470.115 495.051,471.513 493.165,470.838L479.551,465.955C487.947,452.748 488.467,441.131 487.124,433.166C484.534,417.813 473.164,403.65 455.109,393.292C447.914,389.163 444.073,383.629 443.37,376.373C442.077,363.045 451.583,348.309 454.179,346.059C465.847,336.332 473.062,316.052 455.031,295.369C440.202,278.358 413.82,293.357 387.751,299.972L387.751,139.893L495.103,178.396C496.239,178.802 497.001,179.886 497.001,181.093L497.001,468.14L497,468.14Z" style="fill:rgb(99,29,7);fill-rule:nonzero;"/>
            </g>
            <g transform="matrix(4.16667,0,0,4.16667,-82.6812,-892.355)">
                <path d="M131.749,58.329C102.442,58.329 78.602,82.171 78.602,111.476C78.602,140.782 102.443,164.624 131.749,164.624C161.055,164.624 184.897,140.781 184.897,111.476C184.897,82.171 161.056,58.329 131.749,58.329ZM131.749,149.625C110.714,149.625 93.601,132.512 93.601,111.477C93.601,90.442 110.714,73.33 131.749,73.33C152.784,73.33 169.897,90.442 169.897,111.477C169.897,132.512 152.784,149.625 131.749,149.625Z" style="fill:rgb(99,29,7);fill-rule:nonzero;"/>
            </g>
        </g>
    </g>
</svg>
